<svg width="1711" height="4437" viewBox="0 0 1711 4437" fill="none" xmlns="http://www.w3.org/2000/svg">
<path opacity="0.84" d="M180 2082.27C180 2082.27 193.243 2076.06 189.861 2062.07C189.861 2062.07 195.459 2075.79 207.109 2072.72C207.109 2072.72 194.876 2077.77 200.526 2092.38C200.487 2092.38 192.712 2074.69 180 2082.27Z" fill="#F2F2F2" stroke="#F2F2F2" stroke-miterlimit="10"/>
<path opacity="0.84" d="M419.016 1967.82C419.016 1967.82 427.413 1948.08 410.036 1936.1C410.036 1936.1 429.577 1945.61 439.296 1930.85C439.296 1930.85 430.873 1948.35 451.347 1958.79C451.347 1958.79 425.547 1947.05 419.016 1967.82Z" fill="#F2F2F2" stroke="#F2F2F2" stroke-miterlimit="10"/>
<path opacity="0.84" d="M585.946 1914.04C585.946 1914.04 603.102 1906.43 600.018 1892C600.018 1892 605.901 1905.92 620.752 1901.72C620.752 1901.72 604.969 1908.05 610.852 1922.89C610.89 1922.94 602.61 1905.03 585.946 1914.04Z" fill="#F2F2F2" stroke="#F2F2F2" stroke-miterlimit="10"/>
<path opacity="0.84" d="M235.397 1943.13C235.397 1943.13 242.64 1939.73 240.787 1932.08C240.787 1932.08 243.859 1939.57 250.221 1937.9C250.221 1937.9 243.535 1940.66 246.632 1948.65C246.632 1948.65 242.381 1938.98 235.397 1943.13Z" fill="#F2F2F2" stroke="#F2F2F2" stroke-miterlimit="10"/>
<path opacity="0.84" d="M658 4417.98C658 4417.98 681.449 4406.92 675.461 4382C675.461 4382 685.373 4406.44 706 4400.96C706 4400.96 684.34 4409.97 694.344 4436C694.275 4436 680.508 4404.47 658 4417.98Z" fill="#F2F2F2" stroke="#F2F2F2" stroke-miterlimit="10"/>
<path opacity="0.84" d="M1084.09 4214C1084.09 4214 1099.13 4178.76 1068 4157.37C1068 4157.37 1103 4174.36 1120.41 4148C1120.41 4148 1105.32 4179.24 1142 4197.87C1142 4197.87 1095.78 4176.93 1084.09 4214Z" fill="#F2F2F2" stroke="#F2F2F2" stroke-miterlimit="10"/>
<path opacity="0.84" d="M1382 4118.24C1382 4118.24 1412.56 4104.69 1407.07 4079C1407.07 4079 1417.55 4103.79 1444 4096.31C1444 4096.31 1415.89 4107.57 1426.36 4134C1426.43 4134.09 1411.68 4102.2 1382 4118.24Z" fill="#F2F2F2" stroke="#F2F2F2" stroke-miterlimit="10"/>
<path opacity="0.84" d="M757 4170C757 4170 769.704 4163.85 766.454 4150C766.454 4150 771.841 4163.57 783 4160.54C783 4160.54 771.273 4165.54 776.704 4180C776.704 4180 769.25 4162.49 757 4170Z" fill="#F2F2F2" stroke="#F2F2F2" stroke-miterlimit="10"/>
<path opacity="0.84" d="M1631 2858.64C1631 2858.64 1652.99 2848.6 1647.4 2826C1647.4 2826 1656.69 2848.18 1676 2843.2C1676 2843.2 1655.7 2851.36 1665.1 2875C1665.1 2875 1652.2 2846.5 1631 2858.64Z" fill="#F2F2F2" stroke="#F2F2F2" stroke-miterlimit="10"/>
<path opacity="0.84" d="M1544.95 2671C1544.95 2671 1568.6 2691.17 1593 2672.72C1593 2672.72 1571.05 2695.19 1587.16 2714.83C1587.16 2714.83 1566.66 2695.69 1543 2719C1543 2719.15 1570.86 2689.07 1544.95 2671Z" fill="#F2F2F2" stroke="#F2F2F2" stroke-miterlimit="10"/>
<path opacity="0.84" d="M1609 3320.46C1609 3320.46 1660.14 3315.32 1665.27 3265C1665.27 3265 1667.82 3317.02 1710 3320.46C1710 3320.46 1663.69 3322.93 1665.27 3378C1665.27 3378 1660.14 3310.22 1609 3320.46Z" fill="#F2F2F2" stroke="#F2F2F2" stroke-miterlimit="10"/>
<path opacity="0.84" d="M1451.57 1472.06C1451.57 1472.06 1458.81 1468.67 1456.97 1461.02C1456.97 1461.02 1460.03 1468.53 1466.4 1466.84C1466.4 1466.84 1459.71 1469.6 1462.81 1477.6C1462.81 1477.6 1458.56 1467.96 1451.57 1472.06Z" fill="#F2F2F2" stroke="#F2F2F2" stroke-miterlimit="10"/>
<path opacity="0.84" d="M1422.65 1409C1422.65 1409 1430.53 1415.83 1438.65 1409.58C1438.65 1409.58 1431.34 1417.19 1436.71 1423.84C1436.71 1423.84 1429.88 1417.36 1422 1425.26C1422 1425.31 1431.28 1415.12 1422.65 1409Z" fill="#F2F2F2" stroke="#F2F2F2" stroke-miterlimit="10"/>
<path opacity="0.84" d="M1444.03 1626.64C1444.03 1626.64 1461.2 1624.91 1462.92 1608.02C1462.92 1608.02 1463.78 1625.48 1477.94 1626.64C1477.94 1626.64 1462.39 1627.46 1462.92 1645.95C1462.92 1645.95 1461.2 1623.2 1444.03 1626.64Z" fill="#F2F2F2" stroke="#F2F2F2" stroke-miterlimit="10"/>
<path opacity="0.84" d="M1639 967.765C1639 967.765 1667.03 972.146 1676.75 946C1676.75 946 1670.88 974.117 1692.93 981.817C1692.93 981.817 1667.79 976.632 1661.05 1006.3C1661.05 1006.3 1667.74 969.411 1639 967.765Z" fill="#F2F2F2" stroke="#F2F2F2" stroke-miterlimit="10"/>
<path opacity="0.84" d="M45.9998 474.765C45.9998 474.765 74.0286 479.146 83.7474 453C83.7474 453 77.8772 481.117 99.9323 488.817C99.9323 488.817 74.7932 483.632 68.0549 513.304C68.0549 513.304 74.7413 476.411 45.9998 474.765Z" fill="#F2F2F2" stroke="#F2F2F2" stroke-miterlimit="10"/>
<path d="M240.657 916.767C249.508 916.767 249.534 903 240.657 903C231.781 903 231.781 916.767 240.657 916.767Z" fill="#F2F2F2"/>
<path d="M418.657 902.767C427.508 902.767 427.534 889 418.657 889C409.781 889 409.781 902.767 418.657 902.767Z" fill="#F2F2F2"/>
<path d="M1494.66 745.767C1503.51 745.767 1503.53 732 1494.66 732C1485.78 732 1485.78 745.767 1494.66 745.767Z" fill="#F2F2F2"/>
<path d="M1699.66 337.767C1708.51 337.767 1708.53 324 1699.66 324C1690.78 324 1690.78 337.767 1699.66 337.767Z" fill="#F2F2F2"/>
<path d="M1336.66 378.767C1345.51 378.767 1345.53 365 1336.66 365C1327.78 365 1327.78 378.767 1336.66 378.767Z" fill="#F2F2F2"/>
<path d="M1381.66 526.767C1390.51 526.767 1390.53 513 1381.66 513C1372.78 513 1372.78 526.767 1381.66 526.767Z" fill="#F2F2F2"/>
<path d="M58.6571 47.7668C67.5076 47.7668 67.5336 34.0001 58.6571 34.0001C49.7806 34.0001 49.7806 47.7668 58.6571 47.7668Z" fill="#F2F2F2"/>
<path d="M45.6571 692.767C54.5076 692.767 54.5336 679 45.6571 679C36.7806 679 36.7806 692.767 45.6571 692.767Z" fill="#F2F2F2"/>
<path d="M1061.66 378.767C1070.51 378.767 1070.53 365 1061.66 365C1052.78 365 1052.78 378.767 1061.66 378.767Z" fill="#F2F2F2"/>
<path d="M460.657 215.767C469.508 215.767 469.534 202 460.657 202C451.781 202 451.781 215.767 460.657 215.767Z" fill="#F2F2F2"/>
<path d="M1084.81 1442.63C1089.24 1442.51 1093.46 1440.7 1096.59 1437.57C1099.73 1434.43 1101.54 1430.21 1101.65 1425.77L1101.06 1421.3C1100.28 1418.5 1098.79 1415.94 1096.73 1413.89L1093.33 1411.29C1090.76 1409.79 1087.83 1409 1084.85 1409C1080.41 1409.11 1076.2 1410.93 1073.06 1414.06C1069.93 1417.2 1068.11 1421.42 1068 1425.85L1068.61 1430.32C1069.38 1433.13 1070.86 1435.69 1072.92 1437.74L1076.33 1440.33C1078.9 1441.84 1081.83 1442.63 1084.81 1442.63Z" fill="#F2F2F2"/>
<path d="M1287.81 2490.63C1292.24 2490.51 1296.46 2488.7 1299.59 2485.57C1302.73 2482.43 1304.54 2478.21 1304.65 2473.77L1304.06 2469.3C1303.28 2466.5 1301.79 2463.94 1299.73 2461.89L1296.33 2459.29C1293.76 2457.79 1290.83 2457 1287.85 2457C1283.41 2457.11 1279.2 2458.93 1276.06 2462.06C1272.93 2465.2 1271.11 2469.42 1271 2473.85L1271.61 2478.32C1272.38 2481.13 1273.86 2483.69 1275.92 2485.74L1279.33 2488.33C1281.9 2489.84 1284.83 2490.63 1287.81 2490.63Z" fill="#F2F2F2"/>
<path d="M1530.81 3730.63C1535.24 3730.51 1539.46 3728.7 1542.59 3725.57C1545.73 3722.43 1547.54 3718.21 1547.65 3713.77L1547.06 3709.3C1546.28 3706.5 1544.79 3703.94 1542.73 3701.89L1539.33 3699.29C1536.76 3697.79 1533.83 3697 1530.85 3697C1526.41 3697.11 1522.2 3698.93 1519.06 3702.06C1515.93 3705.2 1514.11 3709.42 1514 3713.85L1514.61 3718.32C1515.38 3721.13 1516.86 3723.69 1518.92 3725.74L1522.33 3728.33C1524.9 3729.84 1527.83 3730.63 1530.81 3730.63Z" fill="#F2F2F2"/>
<path d="M1348.81 3964.63C1353.24 3964.51 1357.46 3962.7 1360.59 3959.57C1363.73 3956.43 1365.54 3952.21 1365.65 3947.77L1365.06 3943.3C1364.28 3940.5 1362.79 3937.94 1360.73 3935.89L1357.33 3933.29C1354.76 3931.79 1351.83 3931 1348.85 3931C1344.41 3931.11 1340.2 3932.93 1337.06 3936.06C1333.93 3939.2 1332.11 3943.42 1332 3947.85L1332.61 3952.32C1333.38 3955.13 1334.86 3957.69 1336.92 3959.74L1340.33 3962.33C1342.9 3963.84 1345.83 3964.63 1348.81 3964.63Z" fill="#F2F2F2"/>
<path d="M94.8067 2266.63C99.2393 2266.51 103.46 2264.7 106.595 2261.57C109.73 2258.43 111.541 2254.21 111.653 2249.77L111.056 2245.3C110.278 2242.5 108.787 2239.94 106.728 2237.89L103.333 2235.29C100.757 2233.79 97.828 2233 94.8456 2233C90.414 2233.11 86.1955 2234.93 83.0608 2238.06C79.9261 2241.2 78.1145 2245.42 77.9998 2249.85L78.6088 2254.32C79.3752 2257.13 80.8629 2259.69 82.9238 2261.74L86.3319 2264.33C88.903 2265.84 91.8282 2266.63 94.8067 2266.63Z" fill="#F2F2F2"/>
<path d="M194.807 3094.63C199.239 3094.51 203.46 3092.7 206.595 3089.57C209.73 3086.43 211.541 3082.21 211.653 3077.77L211.056 3073.3C210.278 3070.5 208.787 3067.94 206.728 3065.89L203.333 3063.29C200.757 3061.79 197.828 3061 194.846 3061C190.414 3061.11 186.195 3062.93 183.061 3066.06C179.926 3069.2 178.114 3073.42 178 3077.85L178.609 3082.32C179.375 3085.13 180.863 3087.69 182.924 3089.74L186.332 3092.33C188.903 3093.84 191.828 3094.63 194.807 3094.63Z" fill="#F2F2F2"/>
<path d="M394.807 33.626C399.239 33.5144 403.46 31.703 406.595 28.5666C409.73 25.4301 411.541 21.2084 411.653 16.7742L411.056 12.302C410.278 9.49798 408.787 6.94341 406.728 4.8871L403.333 2.29451C400.757 0.791582 397.828 -0.000147654 394.846 0.000122139C390.414 0.114902 386.195 1.92719 383.061 5.06299C379.926 8.19879 378.114 12.4188 378 16.852L378.609 21.3241C379.375 24.1303 380.863 26.6867 382.924 28.739L386.332 31.3316C388.903 32.8358 391.828 33.6278 394.807 33.626Z" fill="#F2F2F2"/>
<path d="M301.807 232.626C306.239 232.514 310.46 230.703 313.595 227.567C316.73 224.43 318.541 220.208 318.653 215.774L318.056 211.302C317.278 208.498 315.787 205.943 313.728 203.887L310.333 201.295C307.757 199.792 304.828 199 301.846 199C297.414 199.115 293.195 200.927 290.061 204.063C286.926 207.199 285.114 211.419 285 215.852L285.609 220.324C286.375 223.13 287.863 225.687 289.924 227.739L293.332 230.332C295.903 231.836 298.828 232.628 301.807 232.626Z" fill="#F2F2F2"/>
<path d="M128.807 1030.63C133.239 1030.51 137.46 1028.7 140.595 1025.57C143.73 1022.43 145.541 1018.21 145.653 1013.77L145.056 1009.3C144.278 1006.5 142.787 1003.94 140.728 1001.89L137.333 999.295C134.757 997.792 131.828 997 128.846 997C124.414 997.115 120.195 998.927 117.061 1002.06C113.926 1005.2 112.114 1009.42 112 1013.85L112.609 1018.32C113.375 1021.13 114.863 1023.69 116.924 1025.74L120.332 1028.33C122.903 1029.84 125.828 1030.63 128.807 1030.63Z" fill="#F2F2F2"/>
<path d="M1404.81 364.626C1409.24 364.514 1413.46 362.703 1416.59 359.567C1419.73 356.43 1421.54 352.208 1421.65 347.774L1421.06 343.302C1420.28 340.498 1418.79 337.943 1416.73 335.887L1413.33 333.295C1410.76 331.792 1407.83 331 1404.85 331C1400.41 331.115 1396.2 332.927 1393.06 336.063C1389.93 339.199 1388.11 343.419 1388 347.852L1388.61 352.324C1389.38 355.13 1390.86 357.687 1392.92 359.739L1396.33 362.332C1398.9 363.836 1401.83 364.628 1404.81 364.626Z" fill="#F2F2F2"/>
<path d="M25.682 1367.83C32.7404 1373.17 41.0666 1362.21 33.9875 1356.85C26.9085 1351.5 18.6029 1362.48 25.682 1367.83Z" fill="#F2F2F2"/>
<path d="M176.085 1464.06C183.143 1469.4 191.469 1458.43 184.39 1453.08C177.311 1447.72 169.006 1458.7 176.085 1464.06Z" fill="#F2F2F2"/>
<path d="M1128.92 1988.01C1135.98 1993.35 1144.31 1982.38 1137.23 1977.03C1130.15 1971.67 1121.84 1982.65 1128.92 1988.01Z" fill="#F2F2F2"/>
<path d="M1538.56 1786.3C1545.62 1791.64 1553.95 1780.68 1546.87 1775.32C1539.79 1769.97 1531.48 1780.95 1538.56 1786.3Z" fill="#F2F2F2"/>
<path d="M1224.33 1600C1231.39 1605.34 1239.72 1594.38 1232.64 1589.02C1225.56 1583.66 1217.25 1594.64 1224.33 1600Z" fill="#F2F2F2"/>
<path d="M1170.93 1745.18C1177.99 1750.52 1186.31 1739.56 1179.23 1734.2C1172.16 1728.84 1163.85 1739.82 1170.93 1745.18Z" fill="#F2F2F2"/>
<path d="M404.811 564.996C411.869 570.335 420.195 559.372 413.116 554.017C406.037 548.661 397.732 559.64 404.811 564.996Z" fill="#F2F2F2"/>
<path d="M5.30904 1071.55C12.3674 1076.88 20.6936 1065.92 13.6146 1060.57C6.53554 1055.21 -1.77001 1066.19 5.30904 1071.55Z" fill="#F2F2F2"/>
<path d="M1005.02 1434.09C1012.07 1439.43 1020.4 1428.47 1013.32 1423.11C1006.24 1417.75 997.937 1428.73 1005.02 1434.09Z" fill="#F2F2F2"/>
<path d="M624.053 941.507C631.111 946.847 639.438 935.883 632.359 930.528C625.279 925.173 616.974 936.152 624.053 941.507Z" fill="#F2F2F2"/>
<path d="M1287.21 1629.84C1290.81 1632.42 1295.27 1633.52 1299.67 1632.91C1304.06 1632.3 1308.05 1630.03 1310.81 1626.56L1313.04 1622.63C1314.11 1619.93 1314.46 1616.99 1314.06 1614.11L1312.91 1609.99C1311.77 1607.24 1309.91 1604.84 1307.53 1603.04C1303.93 1600.46 1299.47 1599.36 1295.08 1599.97C1290.68 1600.58 1286.69 1602.85 1283.93 1606.32L1281.72 1610.25C1280.63 1612.95 1280.28 1615.89 1280.68 1618.77L1281.84 1622.89C1282.98 1625.64 1284.84 1628.04 1287.21 1629.84Z" fill="#F2F2F2"/>
<path d="M221.657 4389.77C230.508 4389.77 230.534 4376 221.657 4376C212.781 4376 212.781 4389.77 221.657 4389.77Z" fill="#F2F2F2"/>
<path d="M399.657 4375.77C408.508 4375.77 408.534 4362 399.657 4362C390.781 4362 390.781 4375.77 399.657 4375.77Z" fill="#F2F2F2"/>
<path d="M1475.66 4218.77C1484.51 4218.77 1484.53 4205 1475.66 4205C1466.78 4205 1466.78 4218.77 1475.66 4218.77Z" fill="#F2F2F2"/>
<path d="M1680.66 3810.77C1689.51 3810.77 1689.53 3797 1680.66 3797C1671.78 3797 1671.78 3810.77 1680.66 3810.77Z" fill="#F2F2F2"/>
<path d="M1317.66 3851.77C1326.51 3851.77 1326.53 3838 1317.66 3838C1308.78 3838 1308.78 3851.77 1317.66 3851.77Z" fill="#F2F2F2"/>
<path d="M1362.66 3999.77C1371.51 3999.77 1371.53 3986 1362.66 3986C1353.78 3986 1353.78 3999.77 1362.66 3999.77Z" fill="#F2F2F2"/>
<path d="M39.6571 3520.77C48.5076 3520.77 48.5336 3507 39.6571 3507C30.7806 3507 30.7806 3520.77 39.6571 3520.77Z" fill="#F2F2F2"/>
<path d="M26.6571 4165.77C35.5076 4165.77 35.5336 4152 26.6571 4152C17.7806 4152 17.7806 4165.77 26.6571 4165.77Z" fill="#F2F2F2"/>
<path d="M1042.66 3851.77C1051.51 3851.77 1051.53 3838 1042.66 3838C1033.78 3838 1033.78 3851.77 1042.66 3851.77Z" fill="#F2F2F2"/>
<path d="M441.657 3688.77C450.508 3688.77 450.534 3675 441.657 3675C432.781 3675 432.781 3688.77 441.657 3688.77Z" fill="#F2F2F2"/>
<path d="M1385.81 3837.63C1390.24 3837.51 1394.46 3835.7 1397.59 3832.57C1400.73 3829.43 1402.54 3825.21 1402.65 3820.77L1402.06 3816.3C1401.28 3813.5 1399.79 3810.94 1397.73 3808.89L1394.33 3806.29C1391.76 3804.79 1388.83 3804 1385.85 3804C1381.41 3804.11 1377.2 3805.93 1374.06 3809.06C1370.93 3812.2 1369.11 3816.42 1369 3820.85L1369.61 3825.32C1370.38 3828.13 1371.86 3830.69 1373.92 3832.74L1377.33 3835.33C1379.9 3836.84 1382.83 3837.63 1385.81 3837.63Z" fill="#F2F2F2"/>
<path d="M227.657 3060.77C236.508 3060.77 236.534 3047 227.657 3047C218.781 3047 218.781 3060.77 227.657 3060.77Z" fill="#F2F2F2"/>
<path d="M405.657 3046.77C414.508 3046.77 414.534 3033 405.657 3033C396.781 3033 396.781 3046.77 405.657 3046.77Z" fill="#F2F2F2"/>
<path d="M1481.66 2889.77C1490.51 2889.77 1490.53 2876 1481.66 2876C1472.78 2876 1472.78 2889.77 1481.66 2889.77Z" fill="#F2F2F2"/>
<path d="M1686.66 2481.77C1695.51 2481.77 1695.53 2468 1686.66 2468C1677.78 2468 1677.78 2481.77 1686.66 2481.77Z" fill="#F2F2F2"/>
<path d="M1323.66 2522.77C1332.51 2522.77 1332.53 2509 1323.66 2509C1314.78 2509 1314.78 2522.77 1323.66 2522.77Z" fill="#F2F2F2"/>
<path d="M1368.66 2670.77C1377.51 2670.77 1377.53 2657 1368.66 2657C1359.78 2657 1359.78 2670.77 1368.66 2670.77Z" fill="#F2F2F2"/>
<path d="M45.6571 2191.77C54.5076 2191.77 54.5336 2178 45.6571 2178C36.7806 2178 36.7806 2191.77 45.6571 2191.77Z" fill="#F2F2F2"/>
<path d="M32.6571 2836.77C41.5076 2836.77 41.5336 2823 32.6571 2823C23.7806 2823 23.7806 2836.77 32.6571 2836.77Z" fill="#F2F2F2"/>
<path d="M1048.66 2522.77C1057.51 2522.77 1057.53 2509 1048.66 2509C1039.78 2509 1039.78 2522.77 1048.66 2522.77Z" fill="#F2F2F2"/>
<path d="M447.657 2359.77C456.508 2359.77 456.534 2346 447.657 2346C438.781 2346 438.781 2359.77 447.657 2359.77Z" fill="#F2F2F2"/>
<path d="M1391.81 2508.63C1396.24 2508.51 1400.46 2506.7 1403.59 2503.57C1406.73 2500.43 1408.54 2496.21 1408.65 2491.77L1408.06 2487.3C1407.28 2484.5 1405.79 2481.94 1403.73 2479.89L1400.33 2477.29C1397.76 2475.79 1394.83 2475 1391.85 2475C1387.41 2475.11 1383.2 2476.93 1380.06 2480.06C1376.93 2483.2 1375.11 2487.42 1375 2491.85L1375.61 2496.32C1376.38 2499.13 1377.86 2501.69 1379.92 2503.74L1383.33 2506.33C1385.9 2507.84 1388.83 2508.63 1391.81 2508.63Z" fill="#F2F2F2"/>
</svg>
