<svg width="31" height="31" viewBox="0 0 31 31" fill="none" xmlns="http://www.w3.org/2000/svg">
<path d="M1.79375 30.75C1.28125 30.75 0.854167 30.5792 0.5125 30.2375C0.170833 29.8958 0 29.4688 0 28.9563V22.0375C0 21.6389 0.128125 21.2898 0.384375 20.9903C0.640625 20.6919 0.968056 20.5 1.36667 20.4146L7.26042 19.2188C7.65903 19.1618 8.06504 19.1971 8.47846 19.3247C8.89074 19.4534 9.225 19.6458 9.48125 19.9021L13.4958 23.9167C15.6597 22.6069 17.6385 21.0552 19.4323 19.2615C21.226 17.4677 22.7208 15.5458 23.9167 13.4958L19.8167 9.31042C19.5604 9.05417 19.3964 8.76204 19.3247 8.43404C19.2541 8.10718 19.2472 7.74444 19.3042 7.34583L20.4146 1.36667C20.4715 0.968056 20.6566 0.640625 20.9698 0.384375C21.283 0.128125 21.6389 0 22.0375 0H28.9563C29.4688 0 29.8958 0.170833 30.2375 0.5125C30.5792 0.854167 30.75 1.28125 30.75 1.79375C30.75 5.46667 29.9311 9.04676 28.2934 12.534C26.6568 16.0225 24.4929 19.1117 21.8018 21.8018C19.1117 24.4929 16.023 26.6568 12.5358 28.2934C9.04733 29.9311 5.46667 30.75 1.79375 30.75Z" fill="white"/>
</svg>
